HIERARCHY
ROOT Hips
{
	OFFSET	0.00	0.00	0.00
	CHANNELS 6 Xposition Yposition Zposition Zrotation Xrotation Yrotation
	JOINT LeftUpLeg
	{
		OFFSET	 0.126116	-0.014019	-0.065224
		CHANNELS 3 Zrotation Xrotation Yrotation
		JOINT LeftLeg
		{
			OFFSET	 0.000000	 0.000000	 0.569914
			CHANNELS 3 Zrotation Xrotation Yrotation
			JOINT LeftFoot
			{
				OFFSET	 0.000000	 0.000000	 0.544423
				CHANNELS 3 Zrotation Xrotation Yrotation
				JOINT LeftToeBase
				{
					OFFSET	 0.000000	 0.000000	 0.207117
					CHANNELS 3 Zrotation Xrotation Yrotation
					End Site
					{
						OFFSET	 0.000000	 0.000000	 0.207117
					}
				}
			}
		}
	}
	JOINT RightUpLeg
	{
		OFFSET	-0.124023	-0.008373	-0.065224
		CHANNELS 3 Zrotation Xrotation Yrotation
		JOINT RightLeg
		{
			OFFSET	 0.000000	 0.000000	 0.570047
			CHANNELS 3 Zrotation Xrotation Yrotation
			JOINT RightFoot
			{
				OFFSET	 0.000000	 0.000000	 0.544354
				CHANNELS 3 Zrotation Xrotation Yrotation
				JOINT RightToeBase
				{
					OFFSET	 0.000000	 0.000000	 0.207540
					CHANNELS 3 Zrotation Xrotation Yrotation
					End Site
					{
						OFFSET	 0.000000	 0.000000	 0.207540
					}
				}
			}
		}
	}
	JOINT Spine
	{
		OFFSET	 0.000184	-0.007763	 0.117403
		CHANNELS 3 Zrotation Xrotation Yrotation
		JOINT Spine1
		{
			OFFSET	 0.000000	 0.000000	 0.137269
			CHANNELS 3 Zrotation Xrotation Yrotation
			JOINT Spine2
			{
				OFFSET	 0.000000	 0.000000	 0.156879
				CHANNELS 3 Zrotation Xrotation Yrotation
				JOINT LeftShoulder
				{
					OFFSET	 0.080501	-0.002496	 0.160144
					CHANNELS 3 Zrotation Xrotation Yrotation
					JOINT LeftArm
					{
						OFFSET	 0.000000	 0.000000	 0.164363
						CHANNELS 3 Zrotation Xrotation Yrotation
						JOINT LeftForeArm
						{
							OFFSET	 0.000000	 0.000000	 0.364576
							CHANNELS 3 Zrotation Xrotation Yrotation
							JOINT LeftHand
							{
								OFFSET	 0.000000	 0.000000	 0.360812
								CHANNELS 3 Zrotation Xrotation Yrotation
								JOINT LeftHandIndex1
								{
									OFFSET	 0.000000	 0.000000	 0.086006
									CHANNELS 3 Zrotation Xrotation Yrotation
									JOINT LeftHandIndex2
									{
										OFFSET	 0.000000	 0.000000	 0.047236
										CHANNELS 3 Zrotation Xrotation Yrotation
										JOINT LeftHandIndex3
										{
											OFFSET	-0.004284	-0.000551	 0.038166
											CHANNELS 3 Zrotation Xrotation Yrotation
											End Site
											{
												OFFSET	-0.004284	-0.000551	 0.038166
											}
										}
									}
								}
							}
						}
					}
				}
				JOINT Neck
				{
					OFFSET	 0.000000	 0.000000	 0.176489
					CHANNELS 3 Zrotation Xrotation Yrotation
					JOINT Head
					{
						OFFSET	 0.000000	-0.001747	 0.077940
						CHANNELS 3 Zrotation Xrotation Yrotation
						End Site
						{
							OFFSET	 0.000000	-0.001747	 0.077940
						}
					}
				}
				JOINT RightShoulder
				{
					OFFSET	-0.080363	 0.000306	 0.159706
					CHANNELS 3 Zrotation Xrotation Yrotation
					JOINT RightArm
					{
						OFFSET	 0.000000	 0.000000	 0.164196
						CHANNELS 3 Zrotation Xrotation Yrotation
						JOINT RightForeArm
						{
							OFFSET	 0.000000	 0.000000	 0.365611
							CHANNELS 3 Zrotation Xrotation Yrotation
							JOINT RightHand
							{
								OFFSET	 0.000000	 0.000000	 0.360648
								CHANNELS 3 Zrotation Xrotation Yrotation
								JOINT RightHandIndex1
								{
									OFFSET	 0.000000	 0.000000	 0.069977
									CHANNELS 3 Zrotation Xrotation Yrotation
									JOINT RightHandIndex2
									{
										OFFSET	 0.000000	 0.000000	 0.052305
										CHANNELS 3 Zrotation Xrotation Yrotation
										JOINT RightHandIndex3
										{
											OFFSET	 0.009002	-0.000782	 0.042196
											CHANNELS 3 Zrotation Xrotation Yrotation
											End Site
											{
												OFFSET	 0.009002	-0.000782	 0.042196
											}
										}
									}
								}
							}
						}
					}
				}
			}
		}
	}
}
MOTION
Frames:    13
Frame Time: 0.03333334
 0.000099	 0.041519	 1.275731	-0.101378	 2.121346	 0.444995	-4.778968	-5.131458	 179.152400	 2.358841	-13.188810	 0.633706	 0.128868	 71.506610	-0.411482	-2.385833	 28.452750	 0.000004	 12.414960	-4.798501	-179.284100	-0.801955	-11.897430	 0.897276	 5.195919	 70.528330	 1.164581	 2.384659	 28.388700	-0.000001	-6.154221	 6.117746	 1.307406	-3.029550	-2.687807	-0.178490	 9.464470	 5.159308	-0.488799	-91.259990	 70.425550	-178.044400	-8.184946	 2.436587	-1.955252	 24.613600	-7.456819	-27.318120	-10.191170	-20.337170	-4.170466	-2.027600	 6.559038	 9.033609	-5.188889	 0.308190	 3.541030	-5.234859	 0.342567	 0.430617	 4.187764	 16.120080	-6.165371	 4.520800	-12.365060	 2.155051	 89.138020	 69.559380	 177.627700	 9.610519	 7.486493	 6.547329	-26.819390	-7.574451	 20.766870	 7.756054	-20.732110	 6.768269	 1.803333	 3.979147	-15.098590	 4.898592	 3.004813	-9.310344	 5.224449	 0.395017	 2.014677
-0.000679	 0.045157	 1.278503	-0.017233	 3.523945	 0.443770	-5.083844	-5.641617	 178.966200	 2.140264	-10.783840	 0.478699	-0.238654	 69.989120	 0.192527	-2.385833	 28.452750	 0.000004	 12.445130	-5.041177	-178.836700	-0.804173	-9.029414	 0.682735	 4.929661	 68.839170	 1.389939	 2.384659	 28.388700	-0.000001	-6.216718	 7.007572	 1.599745	-3.230546	-6.591982	-0.736359	 9.739018	 9.335366	-0.884881	-90.961350	 68.375180	-177.377300	-7.395265	 0.793143	-3.763693	 23.652500	-7.305702	-28.574090	-7.165484	-22.580310	-4.873496	-2.027600	 6.559038	 9.033609	-5.188889	 0.308190	 3.541030	-5.234859	 0.342567	 0.430617	 4.704181	 21.659040	-7.885806	 5.227361	-16.544630	 2.344594	 88.698360	 66.511570	 176.776200	 7.990445	 4.281289	 9.089536	-26.899950	-7.897044	 21.478150	 4.151284	-21.794480	 5.774697	 1.803333	 3.979147	-15.098590	 4.898592	 3.004813	-9.310344	 5.224449	 0.395017	 2.014677
-0.001715	 0.050722	 1.280656	 0.138284	 5.388375	 0.515176	-5.505633	-6.835152	 178.598300	 2.119886	-8.572029	 0.378301	-0.995139	 68.668880	 1.010332	-2.385833	 28.452760	 0.000004	 12.282950	-5.434286	-178.321300	-1.055243	-5.258603	 0.375582	 4.876019	 66.592980	 1.645270	 2.384659	 28.388700	-0.000001	-5.922289	 7.711938	 1.787754	-3.438449	-10.797610	-1.379677	 9.543267	 13.119520	-1.212041	-90.828070	 66.636020	-177.260700	-6.613381	 0.491403	-4.365818	 21.929060	-6.855664	-30.583180	-5.805326	-25.088680	-6.323764	-2.027600	 6.559038	 9.033609	-5.188889	 0.308190	 3.541030	-5.234859	 0.342567	 0.430617	 4.556573	 25.389850	-8.772255	 5.855411	-19.719200	 2.535221	 88.407150	 63.504670	 176.475700	 6.259401	 2.022756	 10.387550	-26.174130	-8.061534	 22.712690	 1.143594	-22.989940	 5.462860	 1.803333	 3.979147	-15.098590	 4.898592	 3.004813	-9.310344	 5.224449	 0.395017	 2.014677
-0.002444	 0.059038	 1.281934	 0.447166	 7.887121	 0.583334	-6.129601	-9.013288	 178.095400	 2.015991	-6.678061	 0.283048	-1.786943	 67.192010	 1.967834	-2.385833	 28.452760	 0.000004	 11.860690	-6.138525	-177.615600	-1.510255	-0.510146	 0.032414	 5.244369	 63.777820	 1.681987	 2.384659	 28.388700	-0.000001	-5.509355	 7.872988	 1.788495	-3.751891	-15.759580	-2.037040	 9.037388	 16.729280	-1.444662	-91.264340	 65.100170	-178.633400	-4.850300	 1.425177	-2.435874	 19.668260	-6.068342	-33.254670	-5.978990	-26.896300	-8.339762	-2.027600	 6.559038	 9.033609	-5.188889	 0.308190	 3.541030	-5.234859	 0.342567	 0.430617	 3.917946	 26.810950	-8.778947	 6.051753	-21.381080	 2.482671	 88.774420	 61.297420	 177.627900	 3.424952	 1.680286	 9.117599	-24.928300	-8.123441	 24.433860	-1.396381	-23.946130	 5.787531	 1.803333	 3.979147	-15.098590	 4.898592	 3.004813	-9.310344	 5.224449	 0.395017	 2.014677
-0.002834	 0.070866	 1.281016	 0.817245	 11.026510	 0.517990	-6.884403	-13.265430	 177.544900	 1.964711	-7.234571	 0.300043	-2.739632	 66.716090	 3.079183	-2.385832	 28.452790	-0.000001	 11.565240	-9.980131	-176.807700	-1.804468	-0.513406	 0.029981	 6.532189	 63.281020	 0.536308	 2.384659	 28.388700	-0.000001	-5.044150	 7.113930	 1.737929	-3.971222	-20.106130	-2.567383	 8.313604	 19.365320	-1.242230	-92.344280	 65.012160	 178.489800	-2.386243	 5.040053	 1.757203	 18.967070	-6.233607	-36.140700	-5.677786	-28.058870	-9.669907	-2.027600	 6.559038	 9.033609	-5.188889	 0.308190	 3.541030	-5.234859	 0.342567	 0.430617	 3.251456	 25.743610	-8.945902	 5.872631	-21.578860	 2.295958	 89.816540	 60.428800	-179.921200	 0.081027	 4.641064	 5.901260	-23.497370	-8.023539	 26.186340	-3.020188	-25.160450	 6.085515	 1.803333	 3.979147	-15.098590	 4.898592	 3.004813	-9.310344	 5.224449	 0.395017	 2.014677
-0.004248	 0.088403	 1.279587	 2.008218	 15.832950	 0.557051	-8.727409	-20.271640	 176.162000	 2.634865	-9.118187	 0.484005	-4.943984	 66.388750	 4.824232	-2.385833	 28.452760	 0.000004	 10.443060	-15.876090	-176.042700	-1.512927	-0.513533	 0.032608	 7.036078	 61.928420	-0.432880	 2.384659	 28.388700	-0.000001	-4.843687	 5.268575	 1.494769	-4.434656	-22.716950	-3.016796	 7.249714	 19.946690	-1.023343	-93.411920	 65.287520	 175.595500	 1.270975	 9.830861	 5.557341	 18.781870	-6.911844	-39.617310	-4.795690	-28.514780	-10.259270	-2.027600	 6.559038	 9.033609	-5.188889	 0.308190	 3.541030	-5.234859	 0.342567	 0.430617	 2.732000	 24.509940	-8.566453	 5.418116	-21.778730	 2.001280	 91.002850	 60.527200	-177.200600	-3.297760	 9.389447	 2.937780	-21.902720	-7.847118	 28.259730	-3.811931	-26.035520	 6.633329	 1.803333	 3.979147	-15.098590	 4.898592	 3.004813	-9.310344	 5.224449	 0.395017	 2.014677
-0.006380	 0.109956	 1.277843	 3.824158	 21.060860	 0.293299	-11.385610	-26.868550	 174.328100	 3.494180	-8.768726	 0.597082	-7.300763	 64.248990	 6.575041	-2.385833	 28.452760	 0.000004	 8.824274	-23.110940	-175.356700	-1.988692	-1.915404	 0.105648	 8.401525	 60.692140	-1.583351	 2.384659	 28.388700	-0.000001	-4.800334	 4.062097	 1.290136	-4.998906	-23.625990	-2.867370	 6.065124	 19.383780	-1.290081	-94.229160	 65.975620	 173.166600	 6.239819	 16.222170	 5.696150	 18.694470	-7.489061	-42.184200	-4.170712	-29.148430	-10.766760	-2.027600	 6.559038	 9.033609	-5.188889	 0.308190	 3.541030	-5.234859	 0.342567	 0.430617	 2.272661	 23.813210	-7.095682	 4.610510	-22.517970	 1.237421	 92.080240	 61.425910	-174.567900	-6.245925	 15.756230	 2.810299	-21.173650	-7.719842	 29.186450	-4.284876	-26.539230	 7.232921	 1.803333	 3.979147	-15.098590	 4.898592	 3.004813	-9.310344	 5.224449	 0.395017	 2.014677
-0.008965	 0.127028	 1.272174	 4.452336	 23.114270	 0.044424	-12.643740	-31.826360	 173.309900	 3.608907	-12.925810	 0.901860	-8.731952	 65.880020	 8.081085	-2.385833	 28.452750	 0.000004	 8.723816	-30.347260	-175.100500	-2.035537	-10.972720	 0.592666	 11.002150	 64.710040	-4.531730	 2.384659	 28.388700	-0.000001	-4.242899	 6.673550	 1.400239	-4.776993	-22.036070	-1.752431	 5.442756	 19.167980	-1.947603	-94.576840	 68.108220	 171.161300	 11.121070	 22.036670	-0.475319	 19.068900	-7.908762	-42.435650	-3.683512	-30.409930	-11.066730	-2.027600	 6.559038	 9.033609	-5.188889	 0.308190	 3.541030	-5.234859	 0.342567	 0.430617	 1.579164	 22.760130	-6.088829	 3.934853	-23.164930	 0.677193	 92.763300	 62.480110	-172.676500	-8.076867	 21.719180	 7.269945	-20.592930	-7.492315	 29.572410	-2.995530	-27.860040	 8.315879	 1.803333	 3.979147	-15.098590	 4.898592	 3.004813	-9.310344	 5.224449	 0.395017	 2.014677
-0.010752	 0.145149	 1.265848	 3.471703	 25.298530	-0.161009	-12.060660	-36.781720	 173.008700	 3.741112	-17.379240	 1.243858	-10.105250	 67.669980	 9.606349	-2.385833	 28.452750	 0.000004	 10.562900	-35.985430	-173.739900	-2.812097	-17.029760	 0.683954	 14.978480	 67.341920	-8.116145	 2.384659	 28.388700	-0.000001	-3.380136	 10.027490	 1.402700	-3.369515	-17.745620	 0.412167	 5.008514	 17.696400	-2.332510	-94.519790	 70.724130	 169.338500	 14.403290	 24.398470	-8.206678	 18.564690	-7.962889	-44.390200	-4.545028	-33.013820	-11.473000	-2.027600	 6.559038	 9.033609	-5.188889	 0.308190	 3.541030	-5.234859	 0.342567	 0.430617	 0.872294	 21.410370	-5.718232	 3.345404	-23.597080	 0.410588	 93.184930	 64.724090	-170.799800	-10.794200	 27.115420	 15.431030	-19.512250	-7.150811	 30.656040	-0.249066	-30.173830	 9.833941	 1.803333	 3.979147	-15.098590	 4.898592	 3.004813	-9.310344	 5.224449	 0.395017	 2.014677
-0.013219	 0.173413	 1.258118	 3.698619	 27.519590	-1.528201	-11.603050	-41.748210	 173.641000	 4.385427	-18.832770	 1.553371	-11.157180	 66.484900	 10.544770	-2.385833	 28.452750	 0.000004	 12.534810	-42.338730	-170.804400	-4.692857	-22.097040	 0.170563	 19.447030	 67.715010	-11.125560	 2.384659	 28.388700	-0.000001	-2.606721	 12.014510	 0.927788	-2.124490	-11.010790	 3.564254	 3.940156	 15.247500	-3.183537	-95.321480	 69.490600	 167.646300	 12.917240	 21.203580	-12.305840	 17.801130	-8.062639	-47.628780	-5.408471	-35.115670	-11.713610	-2.027600	 6.559038	 9.033609	-5.188889	 0.308190	 3.541030	-5.234859	 0.342567	 0.430617	-0.074803	 23.608730	-4.011130	 2.424666	-27.215960	-1.064012	 93.981860	 64.636390	-168.703000	-12.072550	 26.576770	 22.168320	-18.221060	-6.973010	 33.048700	 1.660887	-31.353420	 11.190700	 1.803333	 3.979147	-15.098590	 4.898592	 3.004813	-9.310344	 5.224449	 0.395017	 2.014677
-0.018187	 0.201076	 1.244288	 4.064278	 29.969400	-3.376309	-10.646220	-47.468920	 174.790100	 4.981695	-20.886390	 1.929542	-12.391270	 65.613040	 11.743510	-2.385833	 28.452750	 0.000004	 15.718560	-48.682870	-166.666200	-6.646330	-26.587980	-0.671502	 23.254510	 67.843440	-13.576750	 2.384659	 28.388700	-0.000001	-1.869253	 12.556750	 0.912887	-1.459033	-2.814098	 4.028278	 2.512176	 11.743540	-1.703523	-95.771010	 69.477150	 166.107900	 10.456740	 18.157750	-16.307980	 17.216150	-8.010294	-49.843720	-6.425973	-36.933210	-11.710070	-2.027600	 6.559038	 9.033609	-5.188889	 0.308190	 3.541030	-5.234859	 0.342567	 0.430617	 0.199255	 26.165440	-5.177841	 2.178369	-30.898770	-0.978152	 95.366980	 62.262180	-166.432100	-11.058480	 22.422900	 25.123630	-16.947440	-6.689203	 35.437240	 3.006205	-31.811550	 12.462940	 1.803333	 3.979147	-15.098590	 4.898592	 3.004813	-9.310344	 5.224449	 0.395017	 2.014677
-0.026655	 0.219574	 1.218224	 4.026636	 31.891630	-4.870141	-10.021550	-55.190910	 175.175600	 5.368634	-29.666690	 2.870757	-15.153910	 68.562360	 14.900160	-2.385833	 28.452750	 0.000004	 20.292220	-55.786950	-162.247100	-8.017812	-35.286670	-1.659726	 27.846670	 70.606830	-17.867590	 2.384659	 28.388700	-0.000001	-0.876705	 13.225590	 1.087707	-0.651997	 6.863545	 2.617399	 1.122709	 7.518524	 0.264733	-96.160620	 69.518230	 164.717300	 7.876164	 15.242130	-22.351220	 17.172190	-7.861856	-49.506020	-7.009835	-38.058400	-11.618190	-2.027600	 6.559038	 9.033609	-5.188889	 0.308190	 3.541030	-5.234859	 0.342567	 0.430617	 0.547042	 28.134910	-5.719615	 1.608780	-33.953930	-1.164706	 96.507470	 60.326740	-164.748400	-8.820055	 16.915420	 28.706910	-15.779350	-5.759693	 35.095400	 4.353218	-32.324250	 13.474190	 1.803333	 3.979147	-15.098590	 4.898592	 3.004813	-9.310344	 5.224449	 0.395017	 2.014677
-0.035149	 0.231017	 1.179137	 4.634989	 33.839920	-6.068427	-10.246790	-63.839720	 174.467500	 5.898441	-40.497240	 4.110645	-18.614910	 72.683580	 19.485220	-2.385833	 28.452750	 0.000004	 27.583360	-63.660250	-155.401600	-9.195236	-45.925500	-2.911268	 35.748380	 74.023780	-25.641020	 2.384659	 28.388700	-0.000001	-0.733557	 13.771370	 0.892880	-0.770802	 13.363450	 2.060946	 0.007416	 4.812264	 1.528156	-97.535040	 66.933360	 163.181200	 5.548714	 8.640671	-25.817500	 16.175600	-6.403018	-48.345150	-7.727198	-37.594260	-12.021980	-2.027600	 6.559038	 9.033609	-5.188889	 0.308190	 3.541030	-5.234859	 0.342567	 0.430617	 0.998176	 29.327650	-6.304374	 1.015817	-36.061550	-1.234998	 97.365330	 58.985980	-163.510600	-6.224861	 12.040410	 34.946650	-14.882470	-4.540368	 31.960920	 5.550754	-32.988390	 14.012740	 1.803333	 3.979147	-15.098590	 4.898592	 3.004813	-9.310344	 5.224449	 0.395017	 2.014677
